# xmcd
#
# Track frame offsets:
#	182
#	15227
#	27475
#	46065
#	58895
#	72730
#	92362
#	107187
#	127370
#	141485
#	155500
#	169735
#
# Disc length: 2418 seconds
#
# Revision: 0
# Processed by: cddbd v1.4PL0 Copyright (c) Steve Scherf et al.
# Submitted via: EasyCDDAExtractor 4.6.9.1
#
DISCID=ac09700c
DTITLE=Fender, Freddy - Live At Gilley's
DYEAR=1900
DGENRE=Country
TTITLE0=Whiskey River
TTITLE1=My Confession
TTITLE2=Six Days On The Road
TTITLE3=Laughin' But Cryin'
TTITLE4=Lovin' Cajun Style
TTITLE5=Sugar Coated Love
TTITLE6=The Rains Came
TTITLE7=Secret Love
TTITLE8=Before The Next Teardrop Falls
TTITLE9=Wasted Days And Wasted Nights
TTITLE10=I Can't Stop Loving You
TTITLE11=Walking Piece Of Heaven
EXTD=
EXTT0=
EXTT1=
EXTT2=
EXTT3=
EXTT4=
EXTT5=
EXTT6=
EXTT7=
EXTT8=
EXTT9=
EXTT10=
EXTT11=
PLAYORDER=
